<svg xmlns="http://www.w3.org/2000/svg" width="27" height="27" fill="none" viewBox="0 0 27 27">
  <path fill="#EACA59" fill-opacity=".5" d="M18.825 8.972H17.49c-.29 0-.567.14-.738.379l-4.476 6.208-2.028-2.814a.91.91 0 00-.738-.378H8.175a.229.229 0 00-.185.361l3.548 4.921a.905.905 0 001.472 0l5.997-8.315a.227.227 0 00-.182-.362z"/>
  <path fill="#EACA59" fill-opacity=".5" d="M13.5.742C6.455.742.742 6.455.742 13.5c0 7.045 5.713 12.758 12.758 12.758 7.045 0 12.758-5.713 12.758-12.758C26.258 6.455 20.544.742 13.5.742zm0 23.351c-5.85 0-10.593-4.744-10.593-10.593C2.907 7.65 7.65 2.907 13.5 2.907c5.85 0 10.593 4.744 10.593 10.593 0 5.85-4.744 10.593-10.593 10.593z"/>
</svg>
