<svg xmlns="http://www.w3.org/2000/svg" width="27" height="27" fill="none" viewBox="0 0 27 27">
  <path fill="#EACA59" fill-opacity=".5" d="M13.5.742C6.455.742.742 6.455.742 13.5c0 7.045 5.713 12.758 12.758 12.758 7.045 0 12.758-5.713 12.758-12.758C26.258 6.455 20.544.742 13.5.742zm0 23.351c-5.85 0-10.593-4.744-10.593-10.593C2.907 7.65 7.65 2.907 13.5 2.907c5.85 0 10.593 4.744 10.593 10.593 0 5.85-4.744 10.593-10.593 10.593z"/>
  <path fill="#EACA59" fill-opacity=".5" d="M18.475 17.105l-4.06-2.936V7.121a.228.228 0 00-.229-.228h-1.37a.229.229 0 00-.227.228v7.843c0 .074.034.142.094.185l4.71 3.434a.23.23 0 00.319-.048l.814-1.11a.227.227 0 00-.051-.32z"/>
</svg>
