<svg xmlns="http://www.w3.org/2000/svg" width="32" height="32" fill="none" viewBox="0 0 32 32">
  <path fill="#EACA59" fill-opacity=".15" d="M16 6.875a6.455 6.455 0 00-4.597 1.903A6.455 6.455 0 009.5 13.375V24h13V13.375a6.455 6.455 0 00-1.903-4.597A6.455 6.455 0 0016 6.875zm8.75 6.5c0-4.41-3.26-8.056-7.5-8.662v.003c4.24.606 7.5 4.25 7.5 8.659zm-10-8.66v-.002a8.752 8.752 0 00-7.5 8.662c0-4.41 3.26-8.053 7.5-8.66z"/>
  <path fill="#EACA59" d="M25.5 24h-.75V13.375c0-4.41-3.26-8.053-7.5-8.66V3.5a1.25 1.25 0 10-2.5 0v1.216a8.748 8.748 0 00-7.5 8.659V24H6.5c-.553 0-1 .447-1 1v1c0 .137.112.25.25.25h6.75c0 1.931 1.569 3.5 3.5 3.5s3.5-1.569 3.5-3.5h6.75a.25.25 0 00.25-.25v-1c0-.553-.447-1-1-1zM16 27.75a1.5 1.5 0 01-1.5-1.5h3a1.5 1.5 0 01-1.5 1.5zM22.5 24h-13V13.375c0-1.738.675-3.369 1.903-4.597A6.455 6.455 0 0116 6.875c1.738 0 3.369.675 4.597 1.903a6.455 6.455 0 011.903 4.597V24z"/>
</svg>
