<svg xmlns="http://www.w3.org/2000/svg" width="64" height="64" fill="none" viewBox="0 0 93 93">
  <path fill="#EACA59" d="M46.364 5.795c-22.403 0-40.569 18.166-40.569 40.569 0 22.403 18.166 40.568 40.569 40.568 22.403 0 40.568-18.165 40.568-40.568S68.767 5.795 46.364 5.795zm0 74.255c-18.6 0-33.686-15.087-33.686-33.686 0-18.6 15.086-33.686 33.686-33.686S80.05 27.764 80.05 46.364 64.963 80.05 46.364 80.05z"/>
  <path fill="#EACA59" fill-opacity=".15" d="M46.364 12.678c-18.6 0-33.686 15.086-33.686 33.686S27.764 80.05 46.364 80.05 80.05 64.963 80.05 46.364c0-18.6-15.087-33.686-33.686-33.686zm14.86 34.247l-19.777 14.39a.726.726 0 01-1.15-.59v-28.76a.725.725 0 011.15-.588l19.776 14.38a.715.715 0 010 1.168z"/>
  <path fill="#EACA59" d="M61.224 45.757l-19.777-14.38a.724.724 0 00-1.15.589v28.76a.725.725 0 001.15.588l19.776-14.389a.715.715 0 000-1.168z"/>
</svg>
