<svg xmlns="http://www.w3.org/2000/svg" width="64" height="64" fill="none" viewBox="0 0 93 93">
  <path fill="#EACA59" d="M84.037 14.489H8.693a2.895 2.895 0 00-2.897 2.898v57.956a2.895 2.895 0 002.897 2.898h75.344a2.895 2.895 0 002.897-2.898V17.387a2.895 2.895 0 00-2.897-2.898zm-3.623 57.232H12.316v-3.613l12.542-14.879L38.45 69.35l21.145-25.067 20.82 24.686v2.753zm0-11.754L60.148 35.933a.72.72 0 00-1.105 0L38.45 60.347 25.41 44.889a.72.72 0 00-1.105 0l-11.99 14.217V21.01h68.1v38.958zM27.53 41.294a7.968 7.968 0 100-15.936 7.968 7.968 0 000 15.936zm0-10.505a2.531 2.531 0 012.536 2.536 2.531 2.531 0 01-2.536 2.535 2.531 2.531 0 01-2.535-2.535 2.531 2.531 0 012.535-2.536z" opacity=".73"/>
</svg>
