<svg xmlns="http://www.w3.org/2000/svg" width="32" height="32" fill="none" viewBox="0 0 32 32">
  <path fill="#EACA59" d="M16 18a2 2 0 100-4 2 2 0 000 4z"/>
  <path fill="#EACA59" d="M27.093 12.493H25.64c-.187 0-.32-.146-.4-.346a.453.453 0 010-.494l1.08-.986a2.174 2.174 0 00.667-1.574 2.228 2.228 0 00-.667-1.586L24.533 5.68a2.227 2.227 0 00-3.16 0l-1.026.987a.507.507 0 01-.547 0 .453.453 0 01-.293-.387V4.907a2.24 2.24 0 00-2.174-2.24h-2.586a2.253 2.253 0 00-2.254 2.24V6.36c0 .187-.146.32-.346.4a.453.453 0 01-.494 0l-.986-1.08a2.293 2.293 0 00-1.587-.667 2.2 2.2 0 00-1.573.667L5.68 7.467a2.227 2.227 0 000 3.2l.987.986a.507.507 0 010 .547.454.454 0 01-.387.293H4.907a2.24 2.24 0 00-2.24 2.24v2.52a2.253 2.253 0 002.24 2.254H6.36c.187 0 .32.146.4.346a.454.454 0 010 .494l-1.08.986c-.42.423-.659.992-.667 1.587a2.213 2.213 0 00.667 1.587l1.787 1.813a2.227 2.227 0 003.16 0l1.026-.987a.507.507 0 01.547 0 .453.453 0 01.293.387v1.453a2.24 2.24 0 002.24 2.16h2.52a2.253 2.253 0 002.254-2.24V25.64c0-.187.146-.32.346-.4a.453.453 0 01.494 0l1.013 1.027c.422.42.991.659 1.587.666a2.199 2.199 0 001.573-.666l1.787-1.787a2.226 2.226 0 000-3.16l-.974-.973a.454.454 0 010-.494.453.453 0 01.387-.293h1.453a2.24 2.24 0 002.16-2.227v-2.586a2.253 2.253 0 00-2.24-2.254zM16 20.667a4.667 4.667 0 110-9.333 4.667 4.667 0 010 9.333z"/>
</svg>
