<svg xmlns="http://www.w3.org/2000/svg" width="86" height="86" fill="none" viewBox="0 0 86 86">
  <path fill="#EACA59" d="M38.367 56.283a3.583 3.583 0 000-5.066l-4.633-4.634H75.25a3.584 3.584 0 000-7.166H33.734l4.633-4.634a3.583 3.583 0 00-5.067-5.066l-10.75 10.75a3.583 3.583 0 000 5.066l10.75 10.75a3.583 3.583 0 005.067 0z"/>
  <path fill="#EACA59" d="M53.75 64.5V46.583H33.733l4.634 4.634a3.583 3.583 0 01-5.067 5.066l-10.75-10.75a3.584 3.584 0 010-5.066l10.75-10.75a3.584 3.584 0 015.067 5.066l-4.633 4.634H53.75V21.5A10.76 10.76 0 0043 10.75H17.917A10.76 10.76 0 007.167 21.5v43a10.76 10.76 0 0010.75 10.75H43A10.76 10.76 0 0053.75 64.5z" opacity=".5"/>
</svg>
