<svg xmlns="http://www.w3.org/2000/svg" width="32" height="32" fill="none" viewBox="0 0 32 32">
  <path fill="#EACA59" fill-opacity=".15" d="M14.667 5.333v11.448l-3.058-3.057a1.333 1.333 0 00-1.885 1.885l5.333 5.334a1.334 1.334 0 001.886 0l5.333-5.334a1.333 1.333 0 00-1.885-1.885l-3.058 3.057V5.333h-2.666z"/>
  <path fill="#EACA59" d="M14.667 16.781V5.333h-8a4.004 4.004 0 00-4 4v13.334a4.004 4.004 0 004 4h18.666a4.004 4.004 0 004-4V9.333a4.004 4.004 0 00-4-4h-8v11.448l3.058-3.057a1.334 1.334 0 111.885 1.885l-5.333 5.334a1.333 1.333 0 01-1.886 0l-5.333-5.334a1.333 1.333 0 011.885-1.885l3.058 3.057z"/>
</svg>
